PathFileType	4	(X/Y/Z)	./resultDataOpenSim/trcMotMarkerGrf/sub09/qtm-05-05.trc
DataRate	CameraRate	NumFrames	NumMarkers	Units	OrigDataRate	OrigDataStartFrame	OrigNumFrames
250.000000	250.000000	7	24	m	250.000000	1	521
Frame#	Time	L.Toe.Tip			R.Toe.Tip			L.Ankle.Lat			R.Ankle.Lat			L.Ankle.Med			R.Ankle.Med			L.Heel			R.Heel			L.Knee.Lat			R.Knee.Lat			L.Knee.Med			R.Knee.Med			L.Thigh.Upper			R.Thigh.Upper			L.ASIS			R.ASIS			V.Sacral			L.Acromium			R.Acromium			C7			L.Elbow			R.Elbow			L.Wrist.Lat			R.Wrist.Lat
		X1	Y1	Z1	X2	Y2	Z2	X3	Y3	Z3	X4	Y4	Z4	X5	Y5	Z5	X6	Y6	Z6	X7	Y7	Z7	X8	Y8	Z8	X9	Y9	Z9	X10	Y10	Z10	X11	Y11	Z11	X12	Y12	Z12	X13	Y13	Z13	X14	Y14	Z14	X15	Y15	Z15	X16	Y16	Z16	X17	Y17	Z17	X18	Y18	Z18	X19	Y19	Z19	X20	Y20	Z20	X21	Y21	Z21	X22	Y22	Z22	X23	Y23	Z23	X24	Y24	Z24

1	0	-1.5259957	0.03749446	-0.0067084955	-1.0452441	0.077748477	0.13536731	-1.6721603	0.075191733	-0.040247114	-1.1953134	0.072614096	0.16300737	-1.6482951	0.089754481	0.053950009	-1.1786898	0.11300553	0.074442764	NaN	NaN	NaN	-1.2503486	0.038746743	0.1067978	-1.5326007	0.46820929	-0.091581196	-1.2143213	0.53133795	0.20365319	-1.533722	0.46899311	0.033434328	-1.2151579	0.51185214	0.0769599	-1.4439318	0.88357081	-0.13773692	-1.425293	0.87927198	0.23748805	-1.3447095	0.9586145	-0.075761883	-1.3435969	0.96222279	0.16451701	-1.5101821	1.0207623	0.047687219	-1.3132687	1.414963	-0.099489157	-1.3559144	1.4184245	0.22587767	-1.3967977	1.4691024	0.050685526	-1.4150722	1.0527395	-0.18751497	NaN	NaN	NaN	-1.1610134	0.95300943	-0.15377841	-1.4394898	0.84037543	0.30885083
2	0.004	-1.5260174	0.037208584	-0.0064215313	-1.0267394	0.080942323	0.13625977	-1.672337	0.075695466	-0.03977595	-1.1770059	0.071968964	0.16359382	-1.6479262	0.090256999	0.054210785	-1.1609503	0.11300179	0.075134005	NaN	NaN	NaN	-1.2314759	0.037180499	0.10641242	-1.5307175	0.46814341	-0.091643078	-1.2081964	0.53034319	0.20410015	-1.5322871	0.4688509	0.033448966	-1.2086738	0.51064557	0.077535527	-1.4389748	0.88248994	-0.13613587	-1.4199246	0.87790824	0.23766861	-1.3389502	0.95734205	-0.075509451	-1.3378616	0.9609329	0.16487679	-1.5046045	1.0195145	0.047913151	-1.3075413	1.4138058	-0.099035579	-1.350541	1.4171069	0.22614635	-1.3912102	1.4679604	0.052578394	-1.4081474	1.0512521	-0.18751782	NaN	NaN	NaN	-1.1531252	0.95418609	-0.15248568	-1.4355266	0.83898144	0.309818
3	0.008	-1.5261643	0.036929092	-0.0060239283	-1.0082574	0.084341153	0.13714207	-1.6723633	0.076261109	-0.039364223	-1.158775	0.071504241	0.1642211	-1.6475987	0.090740176	0.054480154	-1.1433287	0.11312708	0.075874291	NaN	NaN	NaN	-1.2127743	0.035804912	0.10600582	-1.5287915	0.46808966	-0.091707518	-1.2020978	0.52927473	0.2045306	-1.5305953	0.46871317	0.033461977	-1.2022265	0.50937929	0.078019894	-1.4340157	0.8814086	-0.13456397	-1.4144126	0.87652964	0.23791803	-1.3332005	0.95605316	-0.075283729	-1.3320663	0.95959793	0.16520297	-1.4990136	1.0181951	0.048108243	-1.3017952	1.4126399	-0.098610655	-1.3451802	1.4157868	0.22646041	-1.3856161	1.4669044	0.054616442	-1.4011936	1.0497374	-0.18744035	NaN	NaN	NaN	-1.1452651	0.95530001	-0.15120913	-1.4314754	0.8375709	0.31076913
4	0.012	-1.5263496	0.036711987	-0.0056535015	-0.98986136	0.088070701	0.13800692	-1.6722284	0.076879315	-0.039021473	-1.1406535	0.071331469	0.16491765	-1.6473137	0.09120143	0.05476719	-1.1259209	0.11345144	0.076661721	NaN	NaN	NaN	-1.1938806	0.034517898	0.10627351	-1.52678	0.46805048	-0.091777805	-1.1960119	0.5281106	0.20495147	-1.5285934	0.46858266	0.03349403	-1.1958419	0.50802445	0.078403336	-1.4289795	0.88034489	-0.1332998	-1.4087301	0.87511315	0.23823374	-1.3274485	0.95474694	-0.075080861	-1.3261863	0.95821303	0.16548907	-1.4932958	1.0167682	0.048382182	-1.2960128	1.411458	-0.098214619	-1.3398082	1.4144553	0.22681347	-1.3799566	1.4659047	0.056707888	-1.3941961	1.048181	-0.18726151	NaN	NaN	NaN	-1.137437	0.95632259	-0.14995585	-1.4273121	0.83614329	0.31169686
5	0.016	-1.526444	0.03658893	-0.0054598987	-0.97177801	0.092133257	0.13886191	-1.6720285	0.077510236	-0.038723132	-1.1227095	0.071475413	0.16568793	-1.6470193	0.091656027	0.055070408	-1.1088509	0.11397219	0.077462466	NaN	NaN	NaN	-1.1745113	0.033173263	0.10775288	-1.5246429	0.46801811	-0.091841483	-1.1899086	0.52686758	0.20537337	-1.5263525	0.46846063	0.03355697	-1.1895315	0.5065855	0.078720428	-1.4238199	0.87930742	-0.13246599	-1.4029292	0.87365015	0.2385757	-1.3216882	0.95343732	-0.074881889	-1.3202317	0.95680849	0.16574816	-1.4872996	1.015272	0.049030658	-1.2902018	1.4102628	-0.097821545	-1.3344067	1.4131081	0.22717756	-1.3742069	1.4648581	0.058572123	-1.3871742	1.046592	-0.18702201	NaN	NaN	NaN	-1.1296498	0.95725656	-0.14872885	-1.423069	0.83471321	0.31260359
6	0.02	-1.5264396	0.036530225	-0.0054182292	-0.95424778	0.09644458	0.13968916	-1.6718466	0.078155198	-0.038449321	-1.1050215	0.071909376	0.16652356	-1.6466446	0.092129479	0.055373494	-1.0921891	0.11466656	0.078257405	NaN	NaN	NaN	-1.1550786	0.031904931	0.10986951	-1.5223443	0.46799045	-0.091882069	-1.1837832	0.52555887	0.20579717	-1.5239427	0.46834443	0.033647259	-1.1832789	0.50507659	0.079003114	-1.418565	0.87828082	-0.13185667	-1.3970477	0.87214338	0.23891824	-1.3159237	0.95213278	-0.074683107	-1.3142063	0.95540164	0.16599599	-1.4809477	1.0137849	0.050300663	-1.2843737	1.4090602	-0.097412441	-1.3289691	1.4117458	0.22754384	-1.3683755	1.463717	0.060139561	-1.3801536	1.0449897	-0.18677799	NaN	NaN	NaN	-1.1219091	0.95810936	-0.14752219	-1.4187776	0.83328495	0.31349935
7	0.024	-1.5263897	0.036494029	-0.0054407559	-0.93733681	0.10090343	0.14045495	-1.6716928	0.078844668	-0.038196913	-1.0876205	0.072602745	0.16741991	-1.6461613	0.092643234	0.055649843	-1.0759165	0.11552974	0.079048008	NaN	NaN	NaN	-1.1362001	0.030949982	0.11172373	-1.5198688	0.46796908	-0.091901102	-1.1776779	0.52418675	0.2062179	-1.5214392	0.46822777	0.033772011	-1.1770665	0.50351033	0.079281058	-1.4132587	0.87724905	-0.13127515	-1.3910919	0.87059483	0.23925422	-1.3101612	0.95082515	-0.074492655	-1.3081032	0.95399169	0.16624393	-1.4743679	1.0123461	0.051963606	-1.2785259	1.4078463	-0.096990858	-1.32349	1.410369	0.22791982	-1.3624607	1.4625214	0.061634481	-1.3731483	1.0433832	-0.18654975	NaN	NaN	NaN	-1.1142119	0.95887974	-0.14631897	-1.4144371	0.83184397	0.31439424
